<svg version="1.1" preserveAspectRatio="none" xmlns="http://www.w3.org/2000/svg" width="500" height="500" viewBox="0 0 500 500"><rect width="100%" height="100%" fill="#DDA797" fill-opacity="1"/><svg viewBox="65.0075 79.2779 383.5298 302.5379" width="333" height="262.67872978840234" x="83.5px" y="118.6606px" xmlns="http://www.w3.org/2000/svg" xmlns:xlink="http://www.w3.org/1999/xlink" preserveAspectRatio="none"><defs></defs><style>.aLgOaV3zRcolors-3 {fill:#E9643B;fill-opacity:1;}.aLgOaV3zRcolors-4 {fill:#FFF5E9;fill-opacity:1;}.aLgOaV3zRcolors-5 {fill:#DDA797;fill-opacity:1;}.aLgOaV3zRcolors-6 {fill:#632612;fill-opacity:1;}.aLgOaV3zRcolors-7 {fill:#944026;fill-opacity:1;}.companyName {fill:#944026;fill-opacity:1;}.icon1 {fill:#FFF5E9;fill-opacity:1;}.icon2 {fill:#632612;fill-opacity:1;}.icon3 {fill:#944026;fill-opacity:1;}.icon3-str {stroke:#944026;stroke-opacity:1;}</style><g opacity="1" transform="rotate(0 168.5606 79.2779)">
<svg width="176.4237" height="222.5379" x="168.5606" y="79.2779" version="1.1" preserveAspectRatio="none" viewBox="55.99967956542969 44.500701904296875 87.99964904785156 111.00131225585938">
  <g transform="matrix(1 0 0 1 0 0)"><g><path d="M85.095 85.226c.351.614.991.958 1.646.958.323 0 .649-.082.949-.257a1.925 1.925 0 0 0 .695-2.618l-18.07-31.577a1.891 1.891 0 0 0-2.595-.701 1.925 1.925 0 0 0-.695 2.618l18.07 31.577z" data-color="1" class="icon1"></path><path d="M89.451 93.203c-.763-1.408-2.197-2.281-3.744-2.281-.057 0-.288.01-.345.015-4.031.367-7.976-1.76-9.987-5.271l-15.83-27.661a1.891 1.891 0 0 0-2.595-.701 1.925 1.925 0 0 0-.695 2.618l15.829 27.661c2.744 4.794 8.043 7.665 13.622 7.173.152 0 .317.115.402.272l8.207 15.46-19.35 33.111c-1.166 2.039-1.559 4.175-1.133 6.182.423 1.987 1.623 3.644 3.508 4.74 1.137.661 2.34.981 3.534.981 2.663 0 5.266-1.585 6.914-4.465l12.617-22.814a1.926 1.926 0 0 0-.734-2.608 1.892 1.892 0 0 0-2.584.741l-12.603 22.789c-1.315 2.291-3.421 3.115-5.375 1.982a3.2 3.2 0 0 1-1.562-2.149c-.225-1.063.02-2.259.699-3.447l18.168-31.088 2.705 5.095a1.898 1.898 0 0 0 1.676 1.011c.303 0 .61-.072.896-.227a1.926 1.926 0 0 0 .778-2.596L89.451 93.203z" data-color="1" class="icon1"></path><path d="M106.216 109.637a1.927 1.927 0 0 0 .661-2.628L96.302 89.112c-.057-.097-.089-.207-.03-.524a14.58 14.58 0 0 0 2.552-8.274c0-2.521-.661-5.009-1.911-7.195L81.084 45.458a1.891 1.891 0 0 0-2.595-.701 1.925 1.925 0 0 0-.695 2.618l15.829 27.661a10.646 10.646 0 0 1 1.401 5.279c0 2.161-.667 4.325-1.878 6.095a4.207 4.207 0 0 0-.734 2.393c0 .806.221 1.6.633 2.284l10.565 17.885a1.9 1.9 0 0 0 1.635.936c.33-.001.667-.088.971-.271z" data-color="1" class="icon1"></path><path d="M112.064 115.79a1.893 1.893 0 0 0-2.605-.666 1.927 1.927 0 0 0-.661 2.628l16.451 27.841c.515.903.787 1.829.787 2.68 0 1.275-.584 2.316-1.638 2.933-1.791 1.031-3.976.167-5.22-2.004l-11.927-22.465a1.891 1.891 0 0 0-2.573-.784 1.927 1.927 0 0 0-.777 2.596l11.956 22.517c1.586 2.77 4.166 4.425 6.905 4.425 1.22 0 2.439-.332 3.53-.963 2.219-1.293 3.543-3.631 3.543-6.254 0-1.52-.448-3.11-1.309-4.617l-16.462-27.867z" data-color="1" class="icon1"></path><path d="M141.17 71.23a1.897 1.897 0 0 0-2.462 1.086c-1.435 3.691-3.849 7.106-6.984 9.866-3.322 2.925-10.801 7.258-13.859 8.982a10.895 10.895 0 0 0-4.255 4.358l-4.307 8.036a1.93 1.93 0 0 0 .769 2.598 1.891 1.891 0 0 0 2.575-.776l4.307-8.036a7.074 7.074 0 0 1 2.763-2.833c3.931-2.216 11.041-6.392 14.504-9.442 3.595-3.165 6.368-7.093 8.023-11.356a1.919 1.919 0 0 0-1.074-2.483z" data-color="1" class="icon1"></path><path d="M137.018 49.966c-4.866-2.82-11.461-1.954-17.478 2.274-5.727 4.026-9.678 10.345-11.125 17.797-.722 3.701-.873 9.886-.873 14.421 0 1.113.01 2.126.022 3.065a7.188 7.188 0 0 1-1.051 3.739l-2.259 3.706a1.925 1.925 0 0 0 .623 2.636c.309.192.653.285.992.285.638 0 1.262-.324 1.62-.913l2.259-3.704c1.056-1.732 1.615-3.719 1.615-5.893-.012-.834-.022-1.827-.022-2.92 0-4.365.139-10.28.804-13.682 1.257-6.472 4.653-11.937 9.566-15.392 4.777-3.359 9.604-4.305 13.537-2.022 2.941 1.715 4.7 5.174 4.953 9.746.059 1.058.965 1.877 2.004 1.807a1.913 1.913 0 0 0 1.791-2.022c-.325-5.905-2.757-10.47-6.978-12.928z" data-color="1" class="icon1"></path></g></g>
</svg>
</g><g opacity="1" transform="rotate(0 65.0075 331.8158)">
<svg width="383.5298" height="50" x="65.0075" y="331.8158" version="1.1" preserveAspectRatio="none" viewBox="4 -22.44 183.48000000000002 23.92">
  <g transform="matrix(1 0 0 1 0 0)" class="companyName"><path id="id-D6z1nYkh11" d="M18.60-19L18.60-19Q18.72-18.68 18.72-18.28L18.72-18.28Q18.72-17.56 18.34-16.82Q17.96-16.08 17.32-16.08L17.32-16.08Q17.20-16.08 16.76-16.20Q16.32-16.32 15.78-16.48Q15.24-16.64 14.70-16.76Q14.16-16.88 13.84-16.88L13.84-16.88L13.52-16.88Q12.24-17.20 11.06-17.32Q9.88-17.44 8.80-17.44L8.80-17.44Q8.48-17.44 8.32-17.18Q8.16-16.92 8.08-16.56Q8-16.20 8-15.80Q8-15.40 8-15.16L8-15.16L8-14.84Q8-14.60 7.98-14.12Q7.96-13.64 7.92-13.16Q7.88-12.68 7.86-12.30Q7.84-11.92 7.84-11.80L7.84-11.80L10.80-11.88Q10.84-11.88 11.30-11.92Q11.76-11.96 12.40-12.02Q13.04-12.08 13.70-12.12Q14.36-12.16 14.76-12.16L14.76-12.16Q15.60-12.16 16-11.62Q16.40-11.08 16.40-10.36L16.40-10.36Q16.40-9.64 16.14-9.28Q15.88-8.92 15.28-8.76Q14.68-8.60 13.66-8.52Q12.64-8.44 11.12-8.28L11.12-8.28L10.36-8.28Q9.88-8.28 9.28-8.28Q8.68-8.28 7.92-8.24L7.92-8.24L8-4.28Q7.96-3.96 7.96-3.68Q7.96-3.40 7.96-3.08L7.96-3.08Q7.96-1.44 8.36-0.52L8.36-0.52Q8.24 1.36 6.64 1.36L6.64 1.36Q5.80 1.36 5.34 0.78Q4.88 0.20 4.66-0.46Q4.44-1.12 4.40-1.64Q4.36-2.16 4.36-2L4.36-2Q4.20-2.84 4.12-3.68Q4.04-4.52 4.04-5.36L4.04-5.36Q4.04-5.96 4.06-6.64Q4.08-7.32 4.08-8.12L4.08-8.12Q4.08-9.08 4.08-10.16Q4.08-11.24 4-12.48L4-12.48Q4.12-18.32 5.36-20.68L5.36-20.68Q5.60-21 7.20-21L7.20-21Q10.28-21 10.28-20.96L10.28-20.96L10.40-20.96Q10.96-20.96 13.52-20.40L13.52-20.40Q17.08-20.36 18.60-19Z M28.88-21.04L28.88-21.04Q28.80-20.04 28.42-18.78Q28.04-17.52 27.88-16.72L27.88-16.72L27.88-16.24Q27.88-15.68 27.80-15.04Q27.72-14.40 27.64-13.82Q27.56-13.24 27.46-12.80Q27.36-12.36 27.36-12.20L27.36-12.20Q27.32-12 27.32-11.24Q27.32-10.48 27.32-9.20L27.32-9.20L27.32-8.72Q27.32-7.92 27.24-7.32Q27.16-6.72 27.04-6.24L27.04-6.24L27.40-3.24Q27.56-2.80 28.48-1.92L28.48-1.92Q28.28-1.20 27.44-0.62Q26.60-0.04 25.72-0.04L25.72-0.04Q24.52-0.04 23.90-1.18Q23.28-2.32 23.28-5L23.28-5Q23.28-5.44 23.34-5.76Q23.40-6.08 23.40-6.56L23.40-6.56Q23.40-7.52 23.16-8.96L23.16-8.96Q23.36-9.40 23.46-10.08Q23.56-10.76 23.60-11.38Q23.64-12 23.64-12.44Q23.64-12.88 23.64-12.80L23.64-12.80Q23.64-12.76 23.74-13.36Q23.84-13.96 23.96-14.78Q24.08-15.60 24.18-16.48Q24.28-17.36 24.28-17.88L24.28-17.88L24.28-18.20L24.96-21.56Q25.48-22.44 26.76-22.44L26.76-22.44Q28.16-22.44 28.88-21.04Z M49.12-4.72L49.12-4.72Q49.84-4.24 49.84-3.56L49.84-3.56Q49.84-3.20 49.64-2.82Q49.44-2.44 49.12-2.14Q48.80-1.84 48.44-1.64Q48.08-1.44 47.72-1.44L47.72-1.44Q47.40-1.56 46.96-1.86Q46.52-2.16 46.08-2.54Q45.64-2.92 45.26-3.40Q44.88-3.88 44.68-4.36L44.68-4.36L44.40-3.68Q43.64-2.24 42-0.96L42-0.96Q40-0.60 39.68-0.60L39.68-0.60Q38.92-0.60 37.84-0.84L37.84-0.84L35.64-2.40Q34.20-3.76 34.20-6.12L34.20-6.12Q34.20-6.96 34.46-7.98Q34.72-9 35.22-10.04Q35.72-11.08 36.44-12.08Q37.16-13.08 38.12-13.88L38.12-13.88Q39.28-14.32 40.36-14.62Q41.44-14.92 42-15L42-15Q42.76-15.84 43.80-15.84L43.80-15.84Q44.40-15.84 44.86-15.26Q45.32-14.68 45.66-13.80Q46-12.92 46.20-11.86Q46.40-10.80 46.48-9.84L46.48-9.84L47-7.72Q47.24-6.72 47.78-6Q48.32-5.28 49.12-4.72ZM43.04-9.16L43.04-9.16Q42.96-9.20 42.44-11.68L42.44-11.68Q42.24-11.68 41.84-11.68Q41.44-11.68 40.90-11.46Q40.36-11.24 39.74-10.70Q39.12-10.16 38.56-9.08L38.56-9.08Q37.72-7.52 37.72-5.96L37.72-5.96Q38.40-4.64 39.84-3.88L39.84-3.88Q40.28-4 40.58-4.16Q40.88-4.32 41.12-4.60Q41.36-4.88 41.58-5.30Q41.80-5.72 42.08-6.36L42.08-6.36Q42.60-7.28 42.82-7.98Q43.04-8.68 43.04-9.16Z M67.16-13.60L67.16-13.48Q67.04-12.60 65.44-9.68L65.44-9.68L64.24-7Q63.88-6.08 63.60-5.44Q63.32-4.80 63.10-4.34Q62.88-3.88 62.66-3.54Q62.44-3.20 62.20-2.88L62.20-2.88Q62-2.40 61.64-1.90Q61.28-1.40 60.80-0.96Q60.32-0.52 59.76-0.24Q59.20 0.04 58.60 0.04L58.60 0.04Q56.92 0.04 56.20-2.08L56.20-2.08Q55.76-2.56 55.36-3.32Q54.96-4.08 54.66-4.80Q54.36-5.52 54.16-6.06Q53.96-6.60 53.92-6.68L53.92-6.68Q53.44-7.68 53.44-9.04L53.44-9.04L53.44-9.36Q52.68-11.28 52.68-12.88L52.68-12.88Q52.68-13.64 53.30-14Q53.92-14.36 54.72-14.36L54.72-14.36Q55.20-14.36 55.50-14.14Q55.80-13.92 55.98-13.50Q56.16-13.08 56.28-12.48Q56.40-11.88 56.56-11.12L56.56-11.12Q56.84-9.80 57.06-8.92Q57.28-8.04 57.54-7.36Q57.80-6.68 58.16-6.02Q58.52-5.36 59.08-4.48L59.08-4.48Q60.08-5.60 60.44-7.12L60.44-7.12Q60.72-7.64 60.90-8.14Q61.08-8.64 61.40-9.44Q61.72-10.24 62.32-11.50Q62.92-12.76 64.08-14.76L64.08-14.76Q64.52-15.32 65.16-15.32L65.16-15.32Q65.88-15.32 66.52-14.76Q67.16-14.20 67.16-13.60L67.16-13.60Z M81.72-1L81.72-1Q81.20-0.64 80.04-0.30Q78.88 0.04 77.64 0.28L77.64 0.28L76-0.04Q75.64-0.16 74.82-0.60Q74-1.04 73.16-1.94Q72.32-2.84 71.68-4.26Q71.04-5.68 71.04-7.72L71.04-7.72Q71.04-8.44 71.38-9.42Q71.72-10.40 72.40-11.26Q73.08-12.12 74.10-12.72Q75.12-13.32 76.48-13.32L76.48-13.32Q79.20-13.32 81.40-11.56L81.40-11.56Q83.32-8.92 83.32-5.72L83.32-5.72Q83.32-3.36 81.72-1ZM79.76-6.68L79.76-6.68Q79.56-8.24 78.78-9.14Q78-10.04 76.80-10.04L76.80-10.04Q76-10.04 75.30-9.26Q74.60-8.48 74.60-7L74.60-7Q74.60-6.40 74.76-5.74Q74.92-5.08 75.28-4.54Q75.64-4 76.20-3.66Q76.76-3.32 77.56-3.32L77.56-3.32Q78.84-3.32 79.32-4.10Q79.80-4.88 79.80-6.04L79.80-6.04Q79.80-6.20 79.78-6.34Q79.76-6.48 79.76-6.68Z M97.80-13.96L99.20-13.60Q99.84-13.20 99.84-12.08L99.84-12.08Q99.84-11.24 99.40-10.64Q98.96-10.04 98.20-10.04L98.20-10.04Q97.72-10.04 97.22-10.30Q96.72-10.56 96.16-10.56L96.16-10.56Q95.68-10.56 95.22-10.38Q94.76-10.20 94.16-9.60L94.16-9.60L92.96-8.40Q92.96-8.12 92.98-7.84Q93-7.56 93-7.24L93-7.24Q93-6.76 92.98-6.24Q92.96-5.72 92.92-5.12L92.92-5.12L93.28-1.48Q93.16 0.36 91.40 0.36L91.40 0.36Q90.48 0.36 90.04-0.22Q89.60-0.80 89.44-1.84Q89.28-2.88 89.30-4.28Q89.32-5.68 89.28-7.36L89.28-7.36Q89.20-9.88 89.16-9.88L89.16-9.88L89.16-9.84Q89-10.44 88.92-10.90Q88.84-11.36 88.84-11.72L88.84-11.72Q88.84-12.44 89.36-12.90Q89.88-13.36 90.88-13.36L90.88-13.36Q91.52-13.36 92.40-12.36L92.40-12.36Q93.32-13.08 93.82-13.44Q94.32-13.80 94.66-13.96Q95-14.12 95.32-14.14Q95.64-14.16 96.16-14.16L96.16-14.16Q96.60-14.20 96.98-14.12Q97.36-14.04 97.80-13.96L97.80-13.96Z M120.36-5.40L120.36-5.40Q120.24-4.92 119.78-4.24Q119.32-3.56 118.64-2.86Q117.96-2.16 117.18-1.60Q116.40-1.04 115.68-0.80L115.68-0.80Q113.60 0.12 111 0.12L111 0.12Q110.16 0.12 109.54 0.08Q108.92 0.04 108.32-0.16Q107.72-0.36 107.12-0.80Q106.52-1.24 105.76-2.08L105.76-2.08Q104.92-2.96 104.44-3.82Q103.96-4.68 103.72-5.48Q103.48-6.28 103.40-7.02Q103.32-7.76 103.32-8.36L103.32-8.36Q103.32-9.68 103.64-11.48Q103.96-13.28 105.36-15.88L105.36-15.88Q105.88-16.84 106.16-17.40Q106.44-17.96 106.48-18.16L106.48-18.16L108.96-19.68Q110.24-20.44 111.40-20.90Q112.56-21.36 113.96-21.36L113.96-21.36Q114.36-21.36 115.16-21.36Q115.96-21.36 116.74-21.18Q117.52-21 118.12-20.54Q118.72-20.08 118.72-19.20L118.72-19.20Q118.72-17.72 116.96-17.48L116.96-17.48Q117-17.48 116.72-17.52Q116.44-17.56 115.96-17.60Q115.48-17.64 114.88-17.68Q114.28-17.72 113.68-17.72L113.68-17.72Q112.64-17.72 111.58-17.14Q110.52-16.56 109-15.16L109-15.16Q108.20-13.48 107.82-12.54Q107.44-11.60 107.44-11.28L107.44-11.28Q107-10.48 107-8.92L107-8.92Q107-6.04 108.04-4.78Q109.08-3.52 110.88-3.52L110.88-3.52Q112.04-3.52 114.48-4.16L114.48-4.16Q115.96-5.04 117.04-6.96L117.04-6.96Q117.72-7.64 118.44-7.64L118.44-7.64Q119.20-7.64 119.80-7.04Q120.40-6.44 120.40-5.68L120.40-5.68Q120.40-5.60 120.38-5.54Q120.36-5.48 120.36-5.40Z M134.96-13.96L136.36-13.60Q137-13.20 137-12.08L137-12.08Q137-11.24 136.56-10.64Q136.12-10.04 135.36-10.04L135.36-10.04Q134.88-10.04 134.38-10.30Q133.88-10.56 133.32-10.56L133.32-10.56Q132.84-10.56 132.38-10.38Q131.92-10.20 131.32-9.60L131.32-9.60L130.12-8.40Q130.12-8.12 130.14-7.84Q130.16-7.56 130.16-7.24L130.16-7.24Q130.16-6.76 130.14-6.24Q130.12-5.72 130.08-5.12L130.08-5.12L130.44-1.48Q130.32 0.36 128.56 0.36L128.56 0.36Q127.64 0.36 127.20-0.22Q126.76-0.80 126.60-1.84Q126.44-2.88 126.46-4.28Q126.48-5.68 126.44-7.36L126.44-7.36Q126.36-9.88 126.32-9.88L126.32-9.88L126.32-9.84Q126.16-10.44 126.08-10.90Q126-11.36 126-11.72L126-11.72Q126-12.44 126.52-12.90Q127.04-13.36 128.04-13.36L128.04-13.36Q128.68-13.36 129.56-12.36L129.56-12.36Q130.48-13.08 130.98-13.44Q131.48-13.80 131.82-13.96Q132.16-14.12 132.48-14.14Q132.80-14.16 133.32-14.16L133.32-14.16Q133.76-14.20 134.14-14.12Q134.52-14.04 134.96-13.96L134.96-13.96Z M155.16-4.72L155.16-4.72Q155.88-4.24 155.88-3.56L155.88-3.56Q155.88-3.20 155.68-2.82Q155.48-2.44 155.16-2.14Q154.84-1.84 154.48-1.64Q154.12-1.44 153.76-1.44L153.76-1.44Q153.44-1.56 153.00-1.86Q152.56-2.16 152.12-2.54Q151.68-2.92 151.30-3.40Q150.92-3.88 150.72-4.36L150.72-4.36L150.44-3.68Q149.68-2.24 148.04-0.96L148.04-0.96Q146.04-0.60 145.72-0.60L145.72-0.60Q144.96-0.60 143.88-0.84L143.88-0.84L141.68-2.40Q140.24-3.76 140.24-6.12L140.24-6.12Q140.24-6.96 140.50-7.98Q140.76-9 141.26-10.04Q141.76-11.08 142.48-12.08Q143.20-13.08 144.16-13.88L144.16-13.88Q145.32-14.32 146.40-14.62Q147.48-14.92 148.04-15L148.04-15Q148.80-15.84 149.84-15.84L149.84-15.84Q150.44-15.84 150.90-15.26Q151.36-14.68 151.70-13.80Q152.04-12.92 152.24-11.86Q152.44-10.80 152.52-9.84L152.52-9.84L153.04-7.72Q153.28-6.72 153.82-6Q154.36-5.28 155.16-4.72ZM149.08-9.16L149.08-9.16Q149.00-9.20 148.48-11.68L148.48-11.68Q148.28-11.68 147.88-11.68Q147.48-11.68 146.94-11.46Q146.40-11.24 145.78-10.70Q145.16-10.16 144.60-9.08L144.60-9.08Q143.76-7.52 143.76-5.96L143.76-5.96Q144.44-4.64 145.88-3.88L145.88-3.88Q146.32-4 146.62-4.16Q146.92-4.32 147.16-4.60Q147.40-4.88 147.62-5.30Q147.84-5.72 148.12-6.36L148.12-6.36Q148.64-7.28 148.86-7.98Q149.08-8.68 149.08-9.16Z M169.32-15.08L169.32-15.08Q169.76-14.72 169.76-13.76L169.76-13.76Q169.76-12 168.44-12L168.44-12L168.28-12Q167.68-11.96 166.88-11.90Q166.08-11.84 165.08-11.72L165.08-11.72Q165.00-11.08 164.92-10.02Q164.84-8.96 164.84-7.48L164.84-7.48Q164.84-7.36 164.86-7.24Q164.88-7.12 164.88-6.96L164.88-6.96L164.88-5.12Q164.88-4.48 165.10-4.10Q165.32-3.72 165.64-3.56L165.64-3.56L166.76-3.20Q168.08-2.76 168.08-1.60L168.08-1.60Q168.08-0.92 167.54-0.40Q167.00 0.12 166.16 0.12L166.16 0.12Q165.92 0.12 165.34-0.02Q164.76-0.16 164.14-0.40Q163.52-0.64 162.98-1Q162.44-1.36 162.24-1.80L162.24-1.80Q161.80-2.72 161.52-3.74Q161.24-4.76 161.24-5.88L161.24-5.88Q161.24-7.12 161.28-7.64Q161.32-8.16 161.36-8.56Q161.40-8.96 161.44-9.52Q161.48-10.08 161.48-11.36L161.48-11.36Q160.72-11.28 159.24-10.88L159.24-10.88Q158.36-10.88 157.74-11.34Q157.12-11.80 157.12-12.56L157.12-12.56Q157.12-13.12 157.46-13.60Q157.80-14.08 158.88-14.44L158.88-14.44Q159.24-14.56 159.54-14.60Q159.84-14.64 160.14-14.68Q160.44-14.72 160.80-14.74Q161.16-14.76 161.68-14.84L161.68-14.84Q161.72-15.84 161.82-17.10Q161.92-18.36 162.18-19.44Q162.44-20.52 162.94-21.26Q163.44-22 164.28-22L164.28-22Q165.72-22 166.04-20.68L166.04-20.68Q166.04-20.64 165.94-20.14Q165.84-19.64 165.72-19.04Q165.60-18.44 165.50-17.88Q165.40-17.32 165.40-17.16L165.40-17.16L165.28-15.20Q165.56-15.24 165.80-15.26Q166.04-15.28 166.32-15.28L166.32-15.28L166.68-15.28Q166.96-15.28 167.20-15.30Q167.44-15.32 167.64-15.32L167.64-15.32Q168.84-15.32 169.32-15.08Z M187.20-1.60L187.20-1.60Q185.92-0.32 184.32 0.58Q182.72 1.48 181.08 1.48L181.08 1.48Q179.60 1.48 177.28 1L177.28 1Q176.48 0.48 175.68-0.26Q174.88-1 174.24-1.90Q173.60-2.80 173.20-3.86Q172.80-4.92 172.80-6.04L172.80-6.04Q172.80-6.36 172.84-6.90Q172.88-7.44 172.94-7.98Q173.00-8.52 173.04-8.92Q173.08-9.32 173.08-9.32L173.08-9.32Q173.88-10.60 174.78-11.86Q175.68-13.12 177.32-14.08L177.32-14.08Q179.92-14.64 181.08-14.64L181.08-14.64Q181.68-14.64 182.12-14.58Q182.56-14.52 182.98-14.34Q183.40-14.16 183.82-13.80Q184.24-13.44 184.80-12.88L184.80-12.88Q185.44-12.20 185.82-11.96Q186.20-11.72 186.20-11.52L186.20-11.52Q186.20-7.84 183.92-6.52L183.92-6.52Q182.92-6.16 181.32-5.74Q179.72-5.32 176.96-4.96L176.96-4.96Q177.52-3.44 178.44-2.68Q179.36-1.92 180.52-1.92L180.52-1.92Q182.24-1.92 184.84-3.96L184.84-3.96Q185.24-4.32 185.84-4.32L185.84-4.32Q186.48-4.32 186.98-3.84Q187.48-3.36 187.48-2.64L187.48-2.64Q187.48-2.12 187.20-1.60ZM182.68-10.16L182.68-10.16Q181.92-11.40 180.88-11.40L180.88-11.40Q180.44-11.40 179.92-11.28Q179.40-11.16 178.86-10.94Q178.32-10.72 177.86-10.40Q177.40-10.08 177.12-9.64L177.12-9.64L176.72-8.44Q178.08-8.56 179.12-8.64Q180.16-8.72 180.92-8.88Q181.68-9.04 182.12-9.32Q182.56-9.60 182.68-10.16Z"/></g>
</svg>
</g></svg></svg>